<mxfile host="Electron" modified="2025-03-18T08:00:13.681Z" agent="Mozilla/5.0 (X11; Linux x86_64) AppleWebKit/537.36 (KHTML, like Gecko) draw.io/23.0.2 Chrome/120.0.6099.109 Electron/28.1.0 Safari/537.36" etag="wK3bUpZkajKwOceAs6dp" version="23.0.2" type="device">
  <diagram name="第 1 页" id="w0V2XSdfVq_dL91PUOAT">
    <mxGraphModel dx="973" dy="643" grid="1" gridSize="10" guides="1" tooltips="1" connect="1" arrows="1" fold="1" page="1" pageScale="1" pageWidth="827" pageHeight="1169" math="0" shadow="0">
      <root>
        <mxCell id="0" />
        <mxCell id="1" parent="0" />
        <mxCell id="8PZeDAWoviaAPmXJxb0a-1" value="" style="rounded=1;whiteSpace=wrap;html=1;fillColor=#dae8fc;strokeColor=#6c8ebf;" vertex="1" parent="1">
          <mxGeometry x="50" y="160" width="230" height="400" as="geometry" />
        </mxCell>
        <mxCell id="8PZeDAWoviaAPmXJxb0a-4" value="" style="rounded=1;whiteSpace=wrap;html=1;fillColor=#d5e8d4;strokeColor=#82b366;" vertex="1" parent="1">
          <mxGeometry x="70" y="210" width="190" height="330" as="geometry" />
        </mxCell>
        <mxCell id="8PZeDAWoviaAPmXJxb0a-5" value="Activity/Dialog" style="rounded=0;whiteSpace=wrap;html=1;fillColor=none;strokeColor=none;" vertex="1" parent="1">
          <mxGeometry x="105" y="170" width="120" height="30" as="geometry" />
        </mxCell>
        <mxCell id="8PZeDAWoviaAPmXJxb0a-7" value="PhoneWindow" style="rounded=0;whiteSpace=wrap;html=1;fillColor=none;strokeColor=none;" vertex="1" parent="1">
          <mxGeometry x="74" y="214" width="120" height="25" as="geometry" />
        </mxCell>
        <mxCell id="8PZeDAWoviaAPmXJxb0a-8" value="" style="rounded=1;whiteSpace=wrap;html=1;fillColor=#ffe6cc;strokeColor=#d79b00;" vertex="1" parent="1">
          <mxGeometry x="90" y="270" width="150" height="260" as="geometry" />
        </mxCell>
        <mxCell id="8PZeDAWoviaAPmXJxb0a-9" value="DecorView" style="rounded=0;whiteSpace=wrap;html=1;fillColor=none;strokeColor=none;" vertex="1" parent="1">
          <mxGeometry x="105" y="300" width="85" height="30" as="geometry" />
        </mxCell>
        <mxCell id="8PZeDAWoviaAPmXJxb0a-10" value="" style="rounded=1;whiteSpace=wrap;html=1;fillColor=#f8cecc;strokeColor=#b85450;" vertex="1" parent="1">
          <mxGeometry x="105" y="350" width="120" height="170" as="geometry" />
        </mxCell>
        <mxCell id="8PZeDAWoviaAPmXJxb0a-11" value="TitleView" style="rounded=1;whiteSpace=wrap;html=1;" vertex="1" parent="1">
          <mxGeometry x="120" y="360" width="90" height="30" as="geometry" />
        </mxCell>
        <mxCell id="8PZeDAWoviaAPmXJxb0a-12" value="ContentParent" style="rounded=1;whiteSpace=wrap;html=1;" vertex="1" parent="1">
          <mxGeometry x="120" y="450" width="90" height="30" as="geometry" />
        </mxCell>
        <mxCell id="8PZeDAWoviaAPmXJxb0a-20" value="mWindow" style="rounded=0;whiteSpace=wrap;html=1;" vertex="1" parent="1">
          <mxGeometry x="101" y="277" width="66" height="23" as="geometry" />
        </mxCell>
        <mxCell id="8PZeDAWoviaAPmXJxb0a-21" style="edgeStyle=orthogonalEdgeStyle;rounded=0;orthogonalLoop=1;jettySize=auto;html=1;" edge="1" parent="1" source="8PZeDAWoviaAPmXJxb0a-7" target="8PZeDAWoviaAPmXJxb0a-20">
          <mxGeometry relative="1" as="geometry" />
        </mxCell>
        <mxCell id="8PZeDAWoviaAPmXJxb0a-22" value="" style="rounded=1;whiteSpace=wrap;html=1;fillColor=#b1ddf0;strokeColor=#10739e;" vertex="1" parent="1">
          <mxGeometry x="354" y="160" width="290" height="190" as="geometry" />
        </mxCell>
        <mxCell id="8PZeDAWoviaAPmXJxb0a-33" value="" style="edgeStyle=orthogonalEdgeStyle;rounded=0;orthogonalLoop=1;jettySize=auto;html=1;" edge="1" parent="1" source="8PZeDAWoviaAPmXJxb0a-23" target="8PZeDAWoviaAPmXJxb0a-32">
          <mxGeometry relative="1" as="geometry" />
        </mxCell>
        <mxCell id="8PZeDAWoviaAPmXJxb0a-34" value="&lt;font style=&quot;font-size: 14px;&quot;&gt;实现类&lt;/font&gt;" style="edgeLabel;html=1;align=center;verticalAlign=middle;resizable=0;points=[];" vertex="1" connectable="0" parent="8PZeDAWoviaAPmXJxb0a-33">
          <mxGeometry x="-0.0756" relative="1" as="geometry">
            <mxPoint y="-4" as="offset" />
          </mxGeometry>
        </mxCell>
        <mxCell id="8PZeDAWoviaAPmXJxb0a-23" value="WindowManager" style="rounded=0;whiteSpace=wrap;html=1;fillColor=none;strokeColor=none;" vertex="1" parent="1">
          <mxGeometry x="424" y="160" width="150" height="23" as="geometry" />
        </mxCell>
        <mxCell id="8PZeDAWoviaAPmXJxb0a-27" style="edgeStyle=orthogonalEdgeStyle;rounded=0;orthogonalLoop=1;jettySize=auto;html=1;exitX=0.75;exitY=0;exitDx=0;exitDy=0;entryX=0.75;entryY=1;entryDx=0;entryDy=0;" edge="1" parent="1" source="8PZeDAWoviaAPmXJxb0a-24" target="8PZeDAWoviaAPmXJxb0a-32">
          <mxGeometry relative="1" as="geometry" />
        </mxCell>
        <mxCell id="8PZeDAWoviaAPmXJxb0a-29" value="&lt;font style=&quot;font-size: 14px;&quot;&gt;IWindow&lt;/font&gt;" style="edgeLabel;html=1;align=center;verticalAlign=middle;resizable=0;points=[];" vertex="1" connectable="0" parent="8PZeDAWoviaAPmXJxb0a-27">
          <mxGeometry x="0.04" y="-3" relative="1" as="geometry">
            <mxPoint as="offset" />
          </mxGeometry>
        </mxCell>
        <mxCell id="8PZeDAWoviaAPmXJxb0a-24" value="" style="rounded=1;whiteSpace=wrap;html=1;fillColor=#bac8d3;strokeColor=#23445d;" vertex="1" parent="1">
          <mxGeometry x="364" y="440" width="270" height="110" as="geometry" />
        </mxCell>
        <mxCell id="8PZeDAWoviaAPmXJxb0a-25" value="WindowManagerService" style="rounded=0;whiteSpace=wrap;html=1;fillColor=none;strokeColor=none;" vertex="1" parent="1">
          <mxGeometry x="419" y="480" width="150" height="30" as="geometry" />
        </mxCell>
        <mxCell id="8PZeDAWoviaAPmXJxb0a-31" style="edgeStyle=orthogonalEdgeStyle;rounded=0;orthogonalLoop=1;jettySize=auto;html=1;entryX=0;entryY=0.25;entryDx=0;entryDy=0;" edge="1" parent="1" source="8PZeDAWoviaAPmXJxb0a-30" target="8PZeDAWoviaAPmXJxb0a-32">
          <mxGeometry relative="1" as="geometry" />
        </mxCell>
        <mxCell id="8PZeDAWoviaAPmXJxb0a-30" value="mWindowManager" style="rounded=0;whiteSpace=wrap;html=1;" vertex="1" parent="1">
          <mxGeometry x="149" y="240" width="106" height="23" as="geometry" />
        </mxCell>
        <mxCell id="8PZeDAWoviaAPmXJxb0a-32" value="" style="rounded=1;whiteSpace=wrap;html=1;fillColor=#d0cee2;strokeColor=#56517e;" vertex="1" parent="1">
          <mxGeometry x="364" y="221" width="270" height="120" as="geometry" />
        </mxCell>
        <mxCell id="8PZeDAWoviaAPmXJxb0a-35" value="WindowManagerImpl" style="rounded=0;whiteSpace=wrap;html=1;fillColor=none;strokeColor=none;" vertex="1" parent="1">
          <mxGeometry x="424" y="235" width="140" height="30" as="geometry" />
        </mxCell>
        <mxCell id="8PZeDAWoviaAPmXJxb0a-13" value="" style="rounded=1;whiteSpace=wrap;html=1;fillColor=#ffcd28;strokeColor=#d79b00;gradientColor=#ffa500;" vertex="1" parent="1">
          <mxGeometry x="384" y="270" width="230" height="57" as="geometry" />
        </mxCell>
        <mxCell id="8PZeDAWoviaAPmXJxb0a-36" value="ViewRootImpl" style="rounded=0;whiteSpace=wrap;html=1;fillColor=none;strokeColor=none;" vertex="1" parent="1">
          <mxGeometry x="419" y="277" width="115" height="25" as="geometry" />
        </mxCell>
        <mxCell id="8PZeDAWoviaAPmXJxb0a-17" value="mView" style="rounded=0;whiteSpace=wrap;html=1;" vertex="1" parent="1">
          <mxGeometry x="424" y="305" width="55" height="20" as="geometry" />
        </mxCell>
        <mxCell id="8PZeDAWoviaAPmXJxb0a-19" style="edgeStyle=orthogonalEdgeStyle;rounded=0;orthogonalLoop=1;jettySize=auto;html=1;entryX=0;entryY=0.5;entryDx=0;entryDy=0;" edge="1" parent="1" source="8PZeDAWoviaAPmXJxb0a-9" target="8PZeDAWoviaAPmXJxb0a-17">
          <mxGeometry relative="1" as="geometry" />
        </mxCell>
        <mxCell id="8PZeDAWoviaAPmXJxb0a-26" style="edgeStyle=orthogonalEdgeStyle;rounded=0;orthogonalLoop=1;jettySize=auto;html=1;exitX=0.25;exitY=1;exitDx=0;exitDy=0;entryX=0.25;entryY=0;entryDx=0;entryDy=0;" edge="1" parent="1" source="8PZeDAWoviaAPmXJxb0a-32" target="8PZeDAWoviaAPmXJxb0a-24">
          <mxGeometry relative="1" as="geometry" />
        </mxCell>
        <mxCell id="8PZeDAWoviaAPmXJxb0a-28" value="&lt;font style=&quot;font-size: 14px;&quot;&gt;IWindowSession&lt;/font&gt;" style="edgeLabel;html=1;align=center;verticalAlign=middle;resizable=0;points=[];" vertex="1" connectable="0" parent="8PZeDAWoviaAPmXJxb0a-26">
          <mxGeometry x="-0.12" relative="1" as="geometry">
            <mxPoint as="offset" />
          </mxGeometry>
        </mxCell>
      </root>
    </mxGraphModel>
  </diagram>
</mxfile>
